<mxfile host="65bd71144e">
    <diagram id="S1v6Y1RitpwgYi6XsXPg" name="Page-1">
        <mxGraphModel dx="1132" dy="750" grid="1" gridSize="10" guides="1" tooltips="1" connect="1" arrows="1" fold="1" page="1" pageScale="1" pageWidth="850" pageHeight="1100" math="0" shadow="0">
            <root>
                <mxCell id="0"/>
                <mxCell id="1" parent="0"/>
                <mxCell id="5" value="" style="rounded=0;whiteSpace=wrap;html=1;fillColor=none;" vertex="1" parent="1">
                    <mxGeometry x="250" y="50" width="470" height="600" as="geometry"/>
                </mxCell>
                <mxCell id="3" value="リバーシ&lt;br&gt;アプリケーション" style="text;html=1;strokeColor=none;fillColor=none;align=center;verticalAlign=middle;whiteSpace=wrap;rounded=0;" vertex="1" parent="1">
                    <mxGeometry x="360" y="70" width="170" height="30" as="geometry"/>
                </mxCell>
                <mxCell id="4" value="プレイヤー" style="shape=umlActor;verticalLabelPosition=bottom;verticalAlign=top;html=1;outlineConnect=0;fillColor=none;" vertex="1" parent="1">
                    <mxGeometry x="90" y="133" width="30" height="60" as="geometry"/>
                </mxCell>
                <mxCell id="6" value="対戦する" style="ellipse;whiteSpace=wrap;html=1;fillColor=none;" vertex="1" parent="1">
                    <mxGeometry x="280" y="193" width="140" height="70" as="geometry"/>
                </mxCell>
                <mxCell id="7" value="" style="endArrow=none;html=1;exitX=0.036;exitY=0.334;exitDx=0;exitDy=0;exitPerimeter=0;" edge="1" parent="1" source="6" target="4">
                    <mxGeometry width="50" height="50" relative="1" as="geometry">
                        <mxPoint x="340" y="250" as="sourcePoint"/>
                        <mxPoint x="140" y="180" as="targetPoint"/>
                    </mxGeometry>
                </mxCell>
                <mxCell id="8" value="&lt;div style=&quot;text-align: left&quot;&gt;&lt;span&gt;・対戦を開始する&lt;/span&gt;&lt;/div&gt;&lt;div style=&quot;text-align: left&quot;&gt;&lt;span&gt;・盤面を打つ&lt;/span&gt;&lt;/div&gt;&lt;div style=&quot;text-align: left&quot;&gt;・石を打つ&lt;/div&gt;&lt;div style=&quot;text-align: left&quot;&gt;・勝敗を確認する&lt;/div&gt;" style="shape=note;whiteSpace=wrap;html=1;backgroundOutline=1;darkOpacity=0.05;fillColor=#fff2cc;strokeColor=#d6b656;" vertex="1" parent="1">
                    <mxGeometry x="520" y="90" width="120" height="120" as="geometry"/>
                </mxCell>
                <mxCell id="9" value="" style="endArrow=none;dashed=1;html=1;exitX=1;exitY=0.5;exitDx=0;exitDy=0;" edge="1" parent="1" source="6" target="8">
                    <mxGeometry width="50" height="50" relative="1" as="geometry">
                        <mxPoint x="340" y="230" as="sourcePoint"/>
                        <mxPoint x="390" y="180" as="targetPoint"/>
                    </mxGeometry>
                </mxCell>
                <mxCell id="10" value="自分の過去の&lt;br&gt;対戦結果を確認する" style="ellipse;whiteSpace=wrap;html=1;fillColor=none;" vertex="1" parent="1">
                    <mxGeometry x="280" y="310" width="140" height="70" as="geometry"/>
                </mxCell>
                <mxCell id="11" value="会員登録・&lt;br&gt;ログインする" style="ellipse;whiteSpace=wrap;html=1;fillColor=none;" vertex="1" parent="1">
                    <mxGeometry x="285" y="100" width="140" height="70" as="geometry"/>
                </mxCell>
                <mxCell id="13" value="一人で黒白&lt;br&gt;交互に打つ&lt;span style=&quot;color: rgba(0 , 0 , 0 , 0) ; font-family: monospace ; font-size: 0px&quot;&gt;%3CmxGraphModel%3E%3Croot%3E%3CmxCell%20id%3D%220%22%2F%3E%3CmxCell%20id%3D%221%22%20parent%3D%220%22%2F%3E%3CmxCell%20id%3D%222%22%20value%3D%22%22%20style%3D%22rounded%3D0%3BwhiteSpace%3Dwrap%3Bhtml%3D1%3BfillColor%3Dnone%3B%22%20vertex%3D%221%22%20parent%3D%221%22%3E%3CmxGeometry%20x%3D%22250%22%20y%3D%2250%22%20width%3D%22470%22%20height%3D%22470%22%20as%3D%22geometry%22%2F%3E%3C%2FmxCell%3E%3CmxCell%20id%3D%223%22%20value%3D%22%E8%87%AA%E5%88%86%E3%81%AE%E9%81%8E%E5%8E%BB%E3%81%AE%26lt%3Bbr%26gt%3B%E5%AF%BE%E6%88%A6%E7%B5%90%E6%9E%9C%E3%82%92%E7%A2%BA%E8%AA%8D%E3%81%99%E3%82%8B%22%20style%3D%22ellipse%3BwhiteSpace%3Dwrap%3Bhtml%3D1%3BfillColor%3Dnone%3B%22%20vertex%3D%221%22%20parent%3D%221%22%3E%3CmxGeometry%20x%3D%22280%22%20y%3D%22290%22%20width%3D%22140%22%20height%3D%2270%22%20as%3D%22geometry%22%2F%3E%3C%2FmxCell%3E%3C%2Froot%3E%3C%2FmxGraphModel%3E&lt;/span&gt;" style="ellipse;whiteSpace=wrap;html=1;fillColor=none;" vertex="1" parent="1">
                    <mxGeometry x="520" y="220" width="140" height="70" as="geometry"/>
                </mxCell>
                <mxCell id="14" value="コンピュータと&lt;br&gt;対戦する" style="ellipse;whiteSpace=wrap;html=1;fillColor=none;" vertex="1" parent="1">
                    <mxGeometry x="520" y="410" width="140" height="70" as="geometry"/>
                </mxCell>
                <mxCell id="15" value="他のプレイヤーと&lt;br&gt;対戦する" style="ellipse;whiteSpace=wrap;html=1;fillColor=none;" vertex="1" parent="1">
                    <mxGeometry x="500" y="510" width="140" height="70" as="geometry"/>
                </mxCell>
                <mxCell id="16" value="" style="endArrow=none;html=1;exitX=0;exitY=0.5;exitDx=0;exitDy=0;" edge="1" parent="1" source="11">
                    <mxGeometry width="50" height="50" relative="1" as="geometry">
                        <mxPoint x="295.03999999999996" y="226.3800000000001" as="sourcePoint"/>
                        <mxPoint x="130" y="177.44734503443692" as="targetPoint"/>
                    </mxGeometry>
                </mxCell>
                <mxCell id="17" value="" style="endArrow=none;html=1;" edge="1" parent="1" source="10">
                    <mxGeometry width="50" height="50" relative="1" as="geometry">
                        <mxPoint x="295" y="145" as="sourcePoint"/>
                        <mxPoint x="140" y="187.44734503443692" as="targetPoint"/>
                    </mxGeometry>
                </mxCell>
                <mxCell id="18" value="Extends" style="endArrow=block;endSize=16;endFill=0;html=1;exitX=0;exitY=0.5;exitDx=0;exitDy=0;entryX=1;entryY=0.5;entryDx=0;entryDy=0;" edge="1" parent="1" source="13" target="6">
                    <mxGeometry width="160" relative="1" as="geometry">
                        <mxPoint x="420" y="230" as="sourcePoint"/>
                        <mxPoint x="580" y="230" as="targetPoint"/>
                    </mxGeometry>
                </mxCell>
                <mxCell id="19" value="Extends" style="endArrow=block;endSize=16;endFill=0;html=1;exitX=0;exitY=0.5;exitDx=0;exitDy=0;" edge="1" parent="1" source="14">
                    <mxGeometry width="160" relative="1" as="geometry">
                        <mxPoint x="530" y="265" as="sourcePoint"/>
                        <mxPoint x="420" y="238" as="targetPoint"/>
                    </mxGeometry>
                </mxCell>
                <mxCell id="20" value="Extends" style="endArrow=block;endSize=16;endFill=0;html=1;exitX=0;exitY=0.5;exitDx=0;exitDy=0;" edge="1" parent="1" source="15" target="6">
                    <mxGeometry width="160" relative="1" as="geometry">
                        <mxPoint x="525" y="417" as="sourcePoint"/>
                        <mxPoint x="425" y="320" as="targetPoint"/>
                    </mxGeometry>
                </mxCell>
                <mxCell id="21" value="プレイヤーの&lt;br&gt;ランキングを&lt;br&gt;確認する" style="ellipse;whiteSpace=wrap;html=1;fillColor=none;" vertex="1" parent="1">
                    <mxGeometry x="290" y="410" width="140" height="70" as="geometry"/>
                </mxCell>
                <mxCell id="22" value="" style="endArrow=none;html=1;exitX=0;exitY=0.5;exitDx=0;exitDy=0;" edge="1" parent="1" source="21">
                    <mxGeometry width="50" height="50" relative="1" as="geometry">
                        <mxPoint x="321.1259177840029" y="325.8932751247057" as="sourcePoint"/>
                        <mxPoint x="140" y="200" as="targetPoint"/>
                    </mxGeometry>
                </mxCell>
                <mxCell id="25" value="" style="rounded=0;whiteSpace=wrap;html=1;fillColor=none;strokeWidth=5;strokeColor=#FF9991;" vertex="1" parent="1">
                    <mxGeometry x="270" y="185" width="390" height="200" as="geometry"/>
                </mxCell>
            </root>
        </mxGraphModel>
    </diagram>
</mxfile>